<svg width="1920" height="3848" viewBox="0 0 1920 3848" fill="none" xmlns="http://www.w3.org/2000/svg">
<g clip-path="url(#clip0_5_23)">
<rect width="1920" height="3848" fill="#0047DD"/>
<path d="M1920 633.836C1147.6 971.836 255.5 624.336 -94 408.336L-55.5 -555.164C-29.5 -413.831 22.5 -200.364 22.5 -477.164C22.5 -753.964 1287.5 -592.498 1920 -477.164V633.836Z" fill="#0339AC"/>
<path d="M1410 1559C1067.6 1771.4 386.667 1613.17 89 1507.5H-55V2386.5C295.333 2230 1063.9 1976.5 1335.5 2214.5C1607.1 2452.5 2233.33 2382 2512.5 2317C2521.83 2047.17 2534.9 1501 2512.5 1475C2484.5 1442.5 1838 1293.5 1410 1559Z" fill="#0339AC"/>
<path d="M553.386 3075.07C-0.670024 3555.52 -1269.98 3467.54 -1835.37 3363.5L-2094.15 3405.03L-1840.65 4984.64C-1256.22 4602.36 51.8311 3925.16 608.549 4274.53C1165.27 4623.9 2270.31 4316.6 2753.24 4119.28C2692.2 3631.69 2558.16 2646.43 2510.41 2606.16C2450.72 2555.84 1245.96 2474.52 553.386 3075.07Z" fill="#0339AC"/>
</g>
<defs>
<clipPath id="clip0_5_23">
<rect width="1920" height="3848" fill="white"/>
</clipPath>
</defs>
</svg>
