<svg width="415" height="130" viewBox="0 0 415 130" fill="none" xmlns="http://www.w3.org/2000/svg">
<path d="M412.5 65C412.5 72.8117 407.442 80.7111 397.206 88.2919C387.018 95.8372 372.116 102.738 353.477 108.576C316.229 120.244 264.618 127.5 207.5 127.5C150.382 127.5 98.7706 120.244 61.5227 108.576C42.8839 102.738 27.9822 95.8372 17.7943 88.2919C7.55835 80.7111 2.5 72.8117 2.5 65C2.5 57.1883 7.55835 49.2889 17.7943 41.7081C27.9822 34.1628 42.8839 27.2624 61.5227 21.4237C98.7706 9.75572 150.382 2.5 207.5 2.5C264.618 2.5 316.229 9.75572 353.477 21.4237C372.116 27.2624 387.018 34.1628 397.206 41.7081C407.442 49.2889 412.5 57.1883 412.5 65Z" fill="#0339AC" stroke="white" stroke-width="5"/>
<path d="M107.295 54.008L94.3025 54.712C94.0465 55.1813 93.8332 55.5867 93.6625 55.928C93.4918 56.2693 93.3212 56.7173 93.1505 57.272C92.9798 57.8267 92.7878 58.5733 92.5745 59.512C92.4038 60.4507 92.1265 61.752 91.7425 63.416C91.3585 65.2933 90.8252 67.7253 90.1425 70.712C89.5025 73.656 88.6705 77.3893 87.6465 81.912V82.168C87.6465 83.2347 87.2412 83.96 86.4305 84.344C85.6625 84.728 84.8518 84.92 83.9985 84.92C83.4012 84.92 82.8892 84.856 82.4625 84.728L81.5665 84.28C81.3958 84.1093 81.2892 83.9813 81.2465 83.896C80.6918 83.2133 80.3505 82.7227 80.2225 82.424C80.1372 82.1253 80.0945 81.7627 80.0945 81.336C80.1372 81.2507 80.1798 81.144 80.2225 81.016C80.2652 80.888 80.3292 80.6107 80.4145 80.184C80.5425 79.7147 80.6918 79.0533 80.8625 78.2C81.0332 77.304 81.2678 76.088 81.5665 74.552C81.9078 73.016 82.3132 71.0747 82.7825 68.728C83.2518 66.3813 83.8278 63.5013 84.5105 60.088C84.6812 59.32 84.8305 58.5307 84.9585 57.72C85.0865 56.8667 85.2572 55.992 85.4705 55.096L85.3425 54.968H80.0305C79.1772 54.968 78.4305 54.9253 77.7905 54.84C77.1932 54.7547 76.4892 54.6053 75.6785 54.392C75.3798 53.9227 75.1238 53.3467 74.9105 52.664C74.6972 51.9813 74.5905 51.3413 74.5905 50.744C74.5905 50.0613 74.7398 49.4853 75.0385 49.016C75.2945 48.504 75.7638 48.184 76.4465 48.056C77.0012 48.056 77.5132 48.056 77.9825 48.056C78.4518 48.0133 79.0065 47.992 79.6465 47.992C80.2865 47.9493 81.0758 47.928 82.0145 47.928C82.9958 47.8853 84.2758 47.864 85.8545 47.864H89.8225C90.3345 47.8213 91.0385 47.7787 91.9345 47.736C92.8732 47.6933 93.8972 47.672 95.0065 47.672C96.1585 47.6293 97.3745 47.608 98.6545 47.608C99.9345 47.5653 101.193 47.544 102.431 47.544H104.095C104.18 47.544 104.265 47.5227 104.351 47.48H104.287C104.457 47.4373 104.628 47.416 104.799 47.416C104.969 47.416 105.161 47.416 105.375 47.416C106.697 47.416 107.721 47.8213 108.447 48.632C109.215 49.4 109.599 50.232 109.599 51.128C109.599 51.7253 109.407 52.3013 109.023 52.856C108.681 53.368 108.105 53.752 107.295 54.008ZM105.747 81.464L110.291 53.176C110.547 51.9813 110.782 51.0427 110.995 50.36C111.251 49.6347 111.55 49.08 111.891 48.696C112.275 48.312 112.766 48.0773 113.363 47.992C114.003 47.864 114.856 47.8 115.923 47.8C116.307 47.8427 116.648 47.864 116.947 47.864C117.288 47.864 117.608 47.864 117.907 47.864H121.875C122.856 47.864 124.115 47.9067 125.651 47.992C127.23 48.0347 128.787 48.0987 130.323 48.184C131.176 48.2267 131.987 48.2693 132.755 48.312C133.523 48.312 134.206 48.3333 134.803 48.376C135.571 48.4613 136.211 48.5467 136.723 48.632C137.235 48.7173 137.662 48.8453 138.003 49.016C138.387 49.144 138.707 49.336 138.963 49.592C139.219 49.848 139.454 50.1893 139.667 50.616V51.256C139.667 51.6827 139.496 52.1093 139.155 52.536C138.814 52.9627 138.174 53.304 137.235 53.56C137.192 53.56 137.15 53.5813 137.107 53.624C136.979 53.7093 136.702 53.752 136.275 53.752H134.355L120.915 54.264C120.787 54.264 120.638 54.2853 120.467 54.328C120.339 54.328 120.168 54.3493 119.955 54.392C119.784 54.9467 119.592 55.5867 119.379 56.312C119.208 57.0373 119.016 57.7627 118.803 58.488C118.632 59.1707 118.462 59.8107 118.291 60.408C118.12 61.0053 118.014 61.4533 117.971 61.752L118.099 61.944C118.91 62.0293 119.912 62.072 121.107 62.072C122.302 62.072 123.518 62.072 124.755 62.072H130.515C131.624 62.072 132.648 62.1787 133.587 62.392C134.526 62.5627 135.102 63.1173 135.315 64.056V65.144C135.315 65.7413 135.187 66.3173 134.931 66.872C134.675 67.4267 133.95 67.8107 132.755 68.024C132.67 68.024 132.499 68.0453 132.243 68.088C131.987 68.088 131.688 68.1093 131.347 68.152C130.963 68.1947 130.6 68.2373 130.259 68.28C129.918 68.28 129.64 68.28 129.427 68.28C128.019 68.408 126.803 68.5147 125.779 68.6C124.798 68.6853 123.923 68.7493 123.155 68.792C122.43 68.8347 121.79 68.8773 121.235 68.92C120.68 68.92 120.126 68.92 119.571 68.92L116.371 68.856L116.307 68.92C116.179 69.304 116.008 69.9013 115.795 70.712C115.624 71.48 115.432 72.312 115.219 73.208C115.048 74.104 114.878 74.9787 114.707 75.832C114.536 76.6853 114.43 77.3467 114.387 77.816L114.579 78.008C115.56 77.88 116.542 77.7947 117.523 77.752C118.504 77.6667 119.486 77.6027 120.467 77.56C120.723 77.56 120.979 77.56 121.235 77.56C121.534 77.5173 121.811 77.496 122.067 77.496C122.323 77.496 122.643 77.496 123.027 77.496C123.411 77.4533 123.944 77.4107 124.627 77.368C125.352 77.2827 126.248 77.2187 127.315 77.176C128.424 77.0907 129.79 76.984 131.411 76.856C131.496 76.856 131.582 76.8773 131.667 76.92C131.795 76.92 131.902 76.92 131.987 76.92C132.584 77.0053 133.182 77.112 133.779 77.24C134.419 77.3253 134.931 77.5173 135.315 77.816H135.891C135.976 78.2853 136.019 78.6267 136.019 78.84C136.019 79.0533 136.019 79.2453 136.019 79.416C136.019 79.8853 135.955 80.248 135.827 80.504C135.699 80.7173 135.507 80.9947 135.251 81.336C135.123 81.464 134.867 81.592 134.483 81.72C134.142 81.848 133.566 81.9547 132.755 82.04L116.947 84.28H116.755C116.584 84.28 116.456 84.3013 116.371 84.344C115.432 84.5147 114.6 84.6427 113.875 84.728C113.192 84.856 112.36 84.92 111.379 84.92C110.91 84.92 110.334 84.7067 109.651 84.28C109.011 83.8533 108.371 83.384 107.731 82.872C107.262 82.5307 106.878 82.2533 106.579 82.04C106.28 81.8267 106.003 81.6347 105.747 81.464ZM147.255 77.368L146.999 78.328V78.52V78.584L147.319 78.648C148.513 78.6053 149.495 78.5627 150.263 78.52C151.073 78.4347 151.884 78.3493 152.695 78.264C153.548 78.1787 154.508 78.0933 155.575 78.008C156.684 77.88 158.177 77.7093 160.055 77.496C160.353 77.4533 160.673 77.432 161.015 77.432C161.356 77.432 161.74 77.4107 162.167 77.368C162.295 77.3253 162.487 77.304 162.743 77.304C163.383 77.304 163.98 77.5813 164.535 78.136C165.089 78.648 165.367 79.3307 165.367 80.184C165.367 80.568 165.303 80.9093 165.175 81.208C165.089 81.464 164.94 81.8267 164.727 82.296C162.977 82.7227 161.271 83.064 159.607 83.32C157.943 83.576 156.236 83.7893 154.487 83.96C153.463 84.088 152.375 84.216 151.223 84.344C150.113 84.472 148.919 84.6 147.639 84.728C146.401 84.8987 145.036 85.0907 143.543 85.304C142.945 85.304 142.348 85.2187 141.751 85.048C141.196 84.92 140.471 84.6213 139.575 84.152V83.896C139.276 83.5547 139.062 83.1707 138.934 82.744C138.806 82.3173 138.7 81.7413 138.614 81.016C138.614 80.4613 138.7 79.7787 138.87 78.968C139.041 78.1573 139.191 77.3893 139.319 76.664C139.233 76.8773 139.233 76.8133 139.319 76.472C139.404 76.088 139.468 75.8107 139.511 75.64C139.809 74.1893 140.065 72.9093 140.279 71.8C140.492 70.6907 140.705 69.6667 140.919 68.728C141.217 67.1493 141.473 65.8053 141.687 64.696C141.943 63.5867 142.177 62.5413 142.391 61.56C142.647 60.536 142.903 59.4907 143.159 58.424C143.457 57.3147 143.799 55.992 144.183 54.456V54.584C144.183 54.072 144.183 53.56 144.183 53.048C144.225 52.536 144.417 52.0453 144.759 51.576C144.972 50.4667 145.42 49.6987 146.103 49.272C146.785 48.8453 147.852 48.5893 149.303 48.504H149.239C149.879 48.376 150.519 48.312 151.159 48.312C152.652 48.312 153.655 48.632 154.167 49.272C154.721 49.8693 154.999 50.6587 154.999 51.64C154.999 52.4933 154.828 53.4107 154.487 54.392C154.145 55.3733 153.804 56.3547 153.463 57.336C153.335 57.6773 153.207 58.0187 153.079 58.36C152.951 58.7013 152.844 59.0213 152.759 59.32L152.567 59.512L147.255 77.304V77.368ZM164.497 81.464L169.041 53.176C169.297 51.9813 169.532 51.0427 169.745 50.36C170.001 49.6347 170.3 49.08 170.641 48.696C171.025 48.312 171.516 48.0773 172.113 47.992C172.753 47.864 173.606 47.8 174.673 47.8C175.057 47.8427 175.398 47.864 175.697 47.864C176.038 47.864 176.358 47.864 176.657 47.864H180.625C181.606 47.864 182.865 47.9067 184.401 47.992C185.98 48.0347 187.537 48.0987 189.073 48.184C189.926 48.2267 190.737 48.2693 191.505 48.312C192.273 48.312 192.956 48.3333 193.553 48.376C194.321 48.4613 194.961 48.5467 195.473 48.632C195.985 48.7173 196.412 48.8453 196.753 49.016C197.137 49.144 197.457 49.336 197.713 49.592C197.969 49.848 198.204 50.1893 198.417 50.616V51.256C198.417 51.6827 198.246 52.1093 197.905 52.536C197.564 52.9627 196.924 53.304 195.985 53.56C195.942 53.56 195.9 53.5813 195.857 53.624C195.729 53.7093 195.452 53.752 195.025 53.752H193.105L179.665 54.264C179.537 54.264 179.388 54.2853 179.217 54.328C179.089 54.328 178.918 54.3493 178.705 54.392C178.534 54.9467 178.342 55.5867 178.129 56.312C177.958 57.0373 177.766 57.7627 177.553 58.488C177.382 59.1707 177.212 59.8107 177.041 60.408C176.87 61.0053 176.764 61.4533 176.721 61.752L176.849 61.944C177.66 62.0293 178.662 62.072 179.857 62.072C181.052 62.072 182.268 62.072 183.505 62.072H189.265C190.374 62.072 191.398 62.1787 192.337 62.392C193.276 62.5627 193.852 63.1173 194.065 64.056V65.144C194.065 65.7413 193.937 66.3173 193.681 66.872C193.425 67.4267 192.7 67.8107 191.505 68.024C191.42 68.024 191.249 68.0453 190.993 68.088C190.737 68.088 190.438 68.1093 190.097 68.152C189.713 68.1947 189.35 68.2373 189.009 68.28C188.668 68.28 188.39 68.28 188.177 68.28C186.769 68.408 185.553 68.5147 184.529 68.6C183.548 68.6853 182.673 68.7493 181.905 68.792C181.18 68.8347 180.54 68.8773 179.985 68.92C179.43 68.92 178.876 68.92 178.321 68.92L175.121 68.856L175.057 68.92C174.929 69.304 174.758 69.9013 174.545 70.712C174.374 71.48 174.182 72.312 173.969 73.208C173.798 74.104 173.628 74.9787 173.457 75.832C173.286 76.6853 173.18 77.3467 173.137 77.816L173.329 78.008C174.31 77.88 175.292 77.7947 176.273 77.752C177.254 77.6667 178.236 77.6027 179.217 77.56C179.473 77.56 179.729 77.56 179.985 77.56C180.284 77.5173 180.561 77.496 180.817 77.496C181.073 77.496 181.393 77.496 181.777 77.496C182.161 77.4533 182.694 77.4107 183.377 77.368C184.102 77.2827 184.998 77.2187 186.065 77.176C187.174 77.0907 188.54 76.984 190.161 76.856C190.246 76.856 190.332 76.8773 190.417 76.92C190.545 76.92 190.652 76.92 190.737 76.92C191.334 77.0053 191.932 77.112 192.529 77.24C193.169 77.3253 193.681 77.5173 194.065 77.816H194.641C194.726 78.2853 194.769 78.6267 194.769 78.84C194.769 79.0533 194.769 79.2453 194.769 79.416C194.769 79.8853 194.705 80.248 194.577 80.504C194.449 80.7173 194.257 80.9947 194.001 81.336C193.873 81.464 193.617 81.592 193.233 81.72C192.892 81.848 192.316 81.9547 191.505 82.04L175.697 84.28H175.505C175.334 84.28 175.206 84.3013 175.121 84.344C174.182 84.5147 173.35 84.6427 172.625 84.728C171.942 84.856 171.11 84.92 170.129 84.92C169.66 84.92 169.084 84.7067 168.401 84.28C167.761 83.8533 167.121 83.384 166.481 82.872C166.012 82.5307 165.628 82.2533 165.329 82.04C165.03 81.8267 164.753 81.6347 164.497 81.464ZM231.413 57.208L228.789 58.808H228.469C227.957 58.808 227.423 58.5947 226.869 58.168C226.357 57.7413 225.802 57.2293 225.205 56.632C224.522 55.9493 223.818 55.3093 223.093 54.712C222.41 54.1147 221.706 53.816 220.981 53.816H220.789C219.295 53.8587 217.909 54.136 216.628 54.648C215.348 55.1173 214.111 55.9493 212.917 57.144C211.722 58.3387 210.527 59.9387 209.333 61.944C208.138 63.9493 206.879 66.4453 205.557 69.432C205.258 69.9013 205.023 70.52 204.853 71.288C204.725 72.056 204.661 72.8453 204.661 73.656C204.661 74.2533 204.725 74.7867 204.853 75.256C204.981 75.6827 205.215 75.9387 205.557 76.024C205.642 76.5787 205.898 77.048 206.325 77.432C206.794 77.7733 207.221 78.072 207.605 78.328C207.647 78.3707 207.754 78.4347 207.925 78.52H208.821C208.778 78.7333 209.055 78.84 209.653 78.84C210.378 78.84 211.21 78.7973 212.149 78.712C213.087 78.584 213.983 78.3493 214.837 78.008C215.818 77.8373 216.799 77.56 217.781 77.176C218.805 76.7493 219.701 76.3227 220.469 75.896C221.279 75.4267 221.941 74.9573 222.453 74.488C222.965 74.0187 223.221 73.6133 223.221 73.272C223.221 72.9733 222.559 72.824 221.237 72.824C220.511 72.824 219.615 72.9093 218.549 73.08C217.482 73.208 216.202 73.4213 214.708 73.72C213.77 73.72 212.917 73.6773 212.149 73.592C211.423 73.464 210.783 73.2293 210.229 72.888C209.631 72.8453 209.205 72.6533 208.949 72.312C208.693 71.928 208.565 71.5013 208.565 71.032C208.565 70.4773 208.863 69.9013 209.461 69.304C210.058 68.7067 210.954 68.2373 212.149 67.896C212.746 67.768 213.45 67.6613 214.26 67.576C215.114 67.448 216.01 67.3413 216.949 67.256C217.93 67.128 218.911 67.0427 219.893 67C220.917 66.9573 221.919 66.936 222.901 66.936H224.821C225.887 66.936 226.911 66.9573 227.893 67C228.874 67.0427 229.663 67.2347 230.261 67.576C231.029 68.0027 231.477 68.4933 231.604 69.048C231.775 69.6027 231.861 70.1573 231.861 70.712C231.861 71.0533 231.882 71.3307 231.925 71.544L231.861 71.48L231.989 71.864C231.989 72.76 231.583 73.7627 230.773 74.872C230.005 75.9813 229.023 77.0693 227.829 78.136C226.677 79.2027 225.397 80.184 223.989 81.08C222.581 81.9333 221.279 82.5947 220.085 83.064H220.149C219.167 83.6187 217.887 84.0667 216.309 84.408C214.73 84.792 213.023 84.984 211.189 84.984C210.25 84.984 209.311 84.92 208.373 84.792C207.434 84.7067 206.517 84.536 205.621 84.28L205.429 84.152C205.471 84.1947 205.386 84.1733 205.173 84.088C204.959 84.0027 204.767 83.9173 204.597 83.832L204.725 83.896C204.639 83.8533 204.554 83.832 204.469 83.832C204.383 83.832 204.298 83.8107 204.213 83.768C202.207 83.0427 200.757 82.3173 199.861 81.592C198.965 80.824 198.303 79.8213 197.877 78.584L197.3 76.472C197.13 75.9173 197.044 75.1067 197.044 74.04C197.044 72.76 197.236 71.288 197.62 69.624C197.962 67.96 198.474 66.2107 199.157 64.376C199.882 62.5413 200.757 60.7067 201.781 58.872C202.847 57.0373 204.063 55.3307 205.429 53.752C206.837 52.1733 208.394 50.7867 210.101 49.592C211.807 48.3547 213.663 47.4587 215.669 46.904L215.541 47.032C215.882 46.8187 216.479 46.6907 217.333 46.648C218.186 46.5627 218.975 46.52 219.701 46.52H220.981C222.175 46.6053 223.349 46.9893 224.501 47.672C225.653 48.312 226.698 49.0587 227.637 49.912C228.575 50.7653 229.343 51.6187 229.941 52.472C230.538 53.3253 230.879 54.008 230.965 54.52C230.965 54.5627 230.986 54.6053 231.029 54.648L231.413 57.208ZM264.579 56.248L264.835 58.744C264.536 60.024 263.854 61.24 262.787 62.392C261.763 63.544 260.483 64.5893 258.947 65.528C257.454 66.4667 255.832 67.32 254.083 68.088C252.334 68.8133 250.606 69.3893 248.899 69.816L248.835 69.88H248.771C249.752 71.1173 250.99 72.2907 252.483 73.4C253.976 74.5093 255.406 75.5547 256.771 76.536C258.179 77.56 259.374 78.4987 260.355 79.352C261.379 80.1627 261.891 80.888 261.891 81.528C261.891 82.168 261.528 82.616 260.803 82.872C260.718 83.5973 260.419 84.088 259.907 84.344C259.395 84.6427 258.776 84.8987 258.051 85.112C255.832 84.1307 253.891 83.0427 252.227 81.848C250.606 80.6533 248.963 79.2453 247.299 77.624C247.128 77.496 246.979 77.3893 246.851 77.304C246.766 77.2187 246.616 77.0907 246.403 76.92C246.19 76.7067 245.891 76.4293 245.507 76.088C245.166 75.7467 244.654 75.2773 243.971 74.68C243.63 74.3813 243.31 74.104 243.011 73.848C242.712 73.592 242.392 73.3147 242.051 73.016C241.71 73.8693 241.326 74.8507 240.899 75.96C240.515 77.0267 240.152 78.0507 239.811 79.032C239.47 79.9707 239.15 80.8027 238.851 81.528C238.595 82.2533 238.403 82.744 238.275 83C238.275 83.8533 238.04 84.5573 237.571 85.112C237.102 85.6667 236.504 85.944 235.779 85.944H235.651C235.31 85.944 234.862 85.7947 234.307 85.496C233.752 85.1973 233.368 84.9627 233.155 84.792C231.918 83.896 231.278 83 231.235 82.104V81.656C231.235 81.4853 231.256 81.2933 231.299 81.08C231.299 80.824 231.363 80.3973 231.491 79.8C231.619 79.16 231.811 78.264 232.067 77.112C232.323 75.96 232.664 74.3813 233.091 72.376C233.518 70.3707 234.051 67.8747 234.691 64.888C235.374 61.8587 236.206 58.1893 237.187 53.88C237.23 53.7093 237.4 53.304 237.699 52.664C237.998 51.9813 238.403 51.2347 238.915 50.424C238.958 50.296 239 50.1893 239.043 50.104C239.128 50.0187 239.214 49.9333 239.299 49.848C239.427 49.6773 239.534 49.528 239.619 49.4C239.747 49.272 239.875 49.1227 240.003 48.952C240.686 48.6533 241.432 48.4827 242.243 48.44C243.096 48.3547 243.928 48.2693 244.739 48.184C244.952 48.184 245.144 48.184 245.315 48.184C245.528 48.1413 245.742 48.12 245.955 48.12C248.131 48.12 250.392 48.312 252.739 48.696C255.128 49.08 257.731 49.9333 260.547 51.256C261.784 52.152 262.723 52.9413 263.363 53.624C264.003 54.264 264.408 55.1387 264.579 56.248ZM244.547 63.736C245.571 63.6933 246.531 63.608 247.427 63.48C248.323 63.3093 249.219 63.0747 250.115 62.776C251.011 62.4347 251.971 61.9653 252.995 61.368C254.019 60.728 255.214 59.896 256.579 58.872C256.75 58.5733 256.878 58.3173 256.963 58.104C257.091 57.848 257.176 57.656 257.219 57.528C257.091 57.1867 256.856 56.8453 256.515 56.504C256.216 56.1627 255.918 55.864 255.619 55.608C255.534 55.5227 255.448 55.4587 255.363 55.416C255.32 55.3733 255.278 55.3307 255.235 55.288C254.638 54.904 253.934 54.6053 253.123 54.392C252.355 54.136 251.544 53.944 250.691 53.816C249.88 53.688 249.048 53.6027 248.195 53.56C247.384 53.4747 246.638 53.432 245.955 53.432C245.87 53.688 245.806 53.9013 245.763 54.072C245.55 54.6267 245.315 55.3307 245.059 56.184C244.803 56.9947 244.547 57.8693 244.291 58.808C244.035 59.704 243.822 60.5787 243.651 61.432C243.48 62.2853 243.395 63.032 243.395 63.672C243.395 64.184 243.416 64.44 243.459 64.44C243.587 64.44 243.95 64.2053 244.547 63.736ZM287.484 77.56L287.228 76.152L287.036 76.024H286.588C285.99 76.024 285.222 76.0453 284.284 76.088C283.388 76.088 282.406 76.1307 281.34 76.216C280.913 76.2587 280.486 76.28 280.06 76.28C279.633 76.28 279.206 76.3013 278.78 76.344H278.396C277.926 76.3867 277.5 76.4293 277.116 76.472C276.732 76.472 276.369 76.472 276.028 76.472C275.942 76.472 275.9 76.4933 275.9 76.536C275.9 76.536 275.878 76.536 275.836 76.536H275.26C274.79 77.0053 274.428 77.496 274.172 78.008C273.916 78.52 273.617 79.2027 273.276 80.056C273.148 80.3973 272.998 80.7387 272.828 81.08C272.7 81.4213 272.529 81.8053 272.316 82.232C271.718 83.4267 271.014 84.216 270.204 84.6C269.436 85.0267 268.54 85.24 267.516 85.24C266.662 85.24 265.83 84.9413 265.02 84.344C264.209 83.7893 263.803 83.0213 263.803 82.04V81.4C263.803 80.8027 263.889 80.2267 264.059 79.672C264.188 79.1173 264.401 78.456 264.7 77.688C265.382 76.28 266.172 74.7227 267.068 73.016C268.006 71.3093 268.966 69.5813 269.948 67.832C270.972 66.0827 271.974 64.376 272.956 62.712C273.98 61.048 274.918 59.5333 275.772 58.168C276.369 57.3147 276.881 56.4827 277.308 55.672C277.734 54.8613 278.097 54.136 278.396 53.496V53.56C278.438 53.4747 278.481 53.368 278.524 53.24C278.609 53.0693 278.673 52.9413 278.716 52.856C279.1 52.088 279.484 51.384 279.868 50.744C280.252 50.104 280.764 49.528 281.404 49.016C282.086 48.504 282.961 48.056 284.028 47.672C285.094 47.288 286.524 46.9467 288.316 46.648V46.84C288.785 46.8827 288.998 46.9253 288.956 46.968C288.956 46.968 289.02 46.9893 289.148 47.032H289.084C289.169 47.032 289.233 47.0533 289.276 47.096C289.318 47.096 289.382 47.096 289.468 47.096C290.961 47.6933 293.158 58.2107 296.06 78.648C296.145 78.9467 296.23 79.2453 296.316 79.544C296.401 79.8427 296.444 80.0987 296.444 80.312C296.444 81.0373 296.273 81.72 295.932 82.36C295.633 83 295.121 83.448 294.396 83.704C293.926 83.9173 293.542 84.0453 293.244 84.088C292.945 84.1733 292.646 84.216 292.348 84.216C291.708 84.088 291.153 83.96 290.684 83.832C290.214 83.7467 289.809 83.576 289.468 83.32C289.126 83.064 288.828 82.7013 288.572 82.232C288.358 81.72 288.166 81.0373 287.996 80.184L287.484 77.56ZM284.604 59.256L278.204 69.88H285.82L285.948 69.752L284.668 59.256H284.604ZM303.097 81.592L300.985 85.176C300.473 85.432 299.897 85.56 299.257 85.56H298.041C297.187 85.56 296.462 85.2613 295.864 84.664C295.224 84.1093 294.883 83.2773 294.84 82.168V81.912C294.84 81.4427 294.947 80.888 295.16 80.248C295.331 79.5653 295.523 78.968 295.736 78.456H295.672C296.739 75.4693 297.635 72.9307 298.361 70.84C299.129 68.7493 299.811 66.936 300.409 65.4C301.006 63.864 301.539 62.52 302.009 61.368C302.478 60.1733 302.969 59 303.481 57.848V57.912C303.694 57.2293 303.907 56.6533 304.121 56.184C304.334 55.672 304.547 55.16 304.76 54.648C305.059 53.9653 305.422 53.0693 305.849 51.96C306.361 51.064 306.958 50.3387 307.641 49.784C308.366 49.1867 309.475 48.8453 310.969 48.76C311.097 48.7173 311.31 48.696 311.609 48.696H312.249C312.761 48.7387 313.337 48.8027 313.977 48.888C314.617 48.9307 315.235 49.0587 315.833 49.272C316.43 49.4427 316.963 49.72 317.433 50.104C317.902 50.488 318.201 51 318.329 51.64C318.329 51.896 318.286 52.216 318.201 52.6C318.158 52.984 318.073 53.4107 317.945 53.88C317.859 54.3067 317.753 54.7333 317.625 55.16C317.539 55.544 317.433 55.864 317.305 56.12C317.177 56.9733 317.07 57.7413 316.985 58.424C316.899 59.1067 316.814 59.8533 316.729 60.664C316.686 61.4747 316.643 62.4133 316.601 63.48C316.601 64.504 316.579 65.8053 316.537 67.384C318.926 63.288 321.209 59.768 323.385 56.824C325.561 53.8373 327.331 51.6187 328.697 50.168C328.825 49.9973 328.974 49.848 329.145 49.72V49.656L329.081 49.592C329.849 48.7387 330.659 47.9493 331.513 47.224C332.366 46.4987 333.369 46.136 334.521 46.136C335.289 46.2213 336.078 46.4133 336.889 46.712C337.699 47.0107 338.425 47.3947 339.065 47.864C339.747 48.3333 340.302 48.8667 340.729 49.464C341.155 50.0613 341.369 50.7227 341.369 51.448V51.832C340.217 54.4347 339.171 56.9307 338.233 59.32C337.337 61.6667 336.569 64.0133 335.929 66.36C335.331 68.664 334.862 70.9893 334.521 73.336C334.179 75.64 334.009 78.0507 334.009 80.568V81.72C333.966 82.36 333.838 82.872 333.625 83.256C333.454 83.6827 332.771 83.96 331.576 84.088C331.406 84.088 331.299 84.1093 331.257 84.152H331.321C331.193 84.1947 331.043 84.216 330.873 84.216C330.745 84.216 330.617 84.216 330.489 84.216C329.209 84.216 328.163 83.9813 327.353 83.512L326.777 82.936C326.307 82.5093 325.987 82.0187 325.817 81.464C325.646 80.8667 325.497 80.2053 325.369 79.48V79.544C325.326 79.416 325.283 79.288 325.241 79.16C325.241 79.032 325.241 78.8613 325.241 78.648V77.624C325.241 77.1547 325.241 76.728 325.241 76.344C325.241 75.9173 325.283 75.5973 325.369 75.384C325.369 74.4453 325.39 73.5707 325.433 72.76C325.518 71.9067 325.625 71.0533 325.753 70.2C325.881 69.304 326.03 68.3653 326.201 67.384C326.414 66.4027 326.649 65.2933 326.905 64.056H326.841C326.542 64.2267 326.137 64.6747 325.625 65.4C325.113 66.1253 324.558 67 323.961 68.024C323.363 69.048 322.745 70.1787 322.105 71.416C321.465 72.6107 320.867 73.784 320.313 74.936C320.227 75.1067 320.121 75.256 319.993 75.384C319.907 75.512 319.865 75.6187 319.865 75.704C319.267 76.8133 318.734 77.816 318.265 78.712C317.795 79.5653 317.39 80.2907 317.049 80.888C317.006 80.9307 316.729 81.1227 316.217 81.464C315.705 81.7627 315.15 82.04 314.553 82.296C314.211 82.424 313.891 82.552 313.593 82.68C313.294 82.7653 313.038 82.808 312.825 82.808H312.569C311.843 82.808 311.246 82.616 310.777 82.232C310.35 81.8053 310.009 81.272 309.753 80.632C309.497 79.992 309.326 79.2667 309.241 78.456C309.155 77.6453 309.113 76.856 309.113 76.088C309.113 75.576 309.113 75.1067 309.113 74.68C309.113 74.2533 309.134 73.8693 309.177 73.528V68.792C309.177 68.3227 309.155 67.7893 309.113 67.192C309.113 66.552 309.113 65.8693 309.113 65.144L303.097 81.4V81.592Z" fill="white"/>
</svg>
