<svg width="415" height="130" viewBox="0 0 415 130" fill="none" xmlns="http://www.w3.org/2000/svg">
<path d="M412.5 65C412.5 72.8117 407.442 80.7111 397.206 88.2919C387.018 95.8372 372.116 102.738 353.477 108.576C316.229 120.244 264.618 127.5 207.5 127.5C150.382 127.5 98.7706 120.244 61.5227 108.576C42.8839 102.738 27.9822 95.8372 17.7943 88.2919C7.55835 80.7111 2.5 72.8117 2.5 65C2.5 57.1883 7.55835 49.2889 17.7943 41.7081C27.9822 34.1628 42.8839 27.2624 61.5227 21.4237C98.7706 9.75572 150.382 2.5 207.5 2.5C264.618 2.5 316.229 9.75572 353.477 21.4237C372.116 27.2624 387.018 34.1628 397.206 41.7081C407.442 49.2889 412.5 57.1883 412.5 65Z" fill="#0339AC" stroke="white" stroke-width="5"/>
<path d="M131.701 54.008L118.709 54.712C118.453 55.1813 118.239 55.5867 118.069 55.928C117.898 56.2693 117.727 56.7173 117.557 57.272C117.386 57.8267 117.194 58.5733 116.981 59.512C116.81 60.4507 116.533 61.752 116.149 63.416C115.765 65.2933 115.231 67.7253 114.549 70.712C113.909 73.656 113.077 77.3893 112.053 81.912V82.168C112.053 83.2347 111.647 83.96 110.837 84.344C110.069 84.728 109.258 84.92 108.405 84.92C107.807 84.92 107.295 84.856 106.869 84.728L105.973 84.28C105.802 84.1093 105.695 83.9813 105.653 83.896C105.098 83.2133 104.757 82.7227 104.629 82.424C104.543 82.1253 104.501 81.7627 104.501 81.336C104.543 81.2507 104.586 81.144 104.629 81.016C104.671 80.888 104.735 80.6107 104.821 80.184C104.949 79.7147 105.098 79.0533 105.269 78.2C105.439 77.304 105.674 76.088 105.973 74.552C106.314 73.016 106.719 71.0747 107.189 68.728C107.658 66.3813 108.234 63.5013 108.917 60.088C109.087 59.32 109.237 58.5307 109.365 57.72C109.493 56.8667 109.663 55.992 109.877 55.096L109.749 54.968H104.437C103.583 54.968 102.837 54.9253 102.197 54.84C101.599 54.7547 100.895 54.6053 100.085 54.392C99.7861 53.9227 99.5301 53.3467 99.3167 52.664C99.1034 51.9813 98.9967 51.3413 98.9967 50.744C98.9967 50.0613 99.1461 49.4853 99.4447 49.016C99.7007 48.504 100.17 48.184 100.853 48.056C101.407 48.056 101.919 48.056 102.389 48.056C102.858 48.0133 103.413 47.992 104.053 47.992C104.693 47.9493 105.482 47.928 106.421 47.928C107.402 47.8853 108.682 47.864 110.261 47.864H114.229C114.741 47.8213 115.445 47.7787 116.341 47.736C117.279 47.6933 118.303 47.672 119.413 47.672C120.565 47.6293 121.781 47.608 123.061 47.608C124.341 47.5653 125.599 47.544 126.837 47.544H128.501C128.586 47.544 128.671 47.5227 128.757 47.48H128.693C128.863 47.4373 129.034 47.416 129.205 47.416C129.375 47.416 129.567 47.416 129.781 47.416C131.103 47.416 132.127 47.8213 132.853 48.632C133.621 49.4 134.005 50.232 134.005 51.128C134.005 51.7253 133.813 52.3013 133.429 52.856C133.087 53.368 132.511 53.752 131.701 54.008ZM133.481 83.576L133.289 83.512C132.692 83.128 132.265 82.68 132.009 82.168C131.796 81.656 131.647 81.1013 131.561 80.504C131.348 78.5413 131.22 76.6213 131.177 74.744C131.135 72.8667 131.092 71.032 131.049 69.24C131.049 66.424 131.135 63.7787 131.305 61.304C131.519 58.7867 131.775 56.5467 132.073 54.584V54.456C132.201 53.6453 132.308 52.9627 132.393 52.408C132.521 51.8107 132.713 51.32 132.969 50.936C133.225 50.5093 133.567 50.1893 133.993 49.976C134.463 49.72 135.124 49.5493 135.977 49.464H135.849C136.276 49.336 136.809 49.272 137.449 49.272C138.431 49.272 139.369 49.528 140.265 50.04C141.204 50.5093 141.737 51.2773 141.865 52.344C141.78 53.624 141.695 54.5627 141.609 55.16C141.567 55.7573 141.503 56.3333 141.417 56.888C141.375 57.016 141.353 57.1653 141.353 57.336C141.353 57.5067 141.332 57.6773 141.289 57.848C141.076 58.7013 140.884 59.768 140.713 61.048C140.543 62.328 140.393 64.0987 140.265 66.36C140.735 65.5067 141.14 64.76 141.481 64.12C141.865 63.48 142.228 62.8827 142.569 62.328C142.911 61.7733 143.252 61.24 143.593 60.728C143.935 60.1733 144.319 59.5547 144.745 58.872C145.599 57.5493 146.559 56.3973 147.625 55.416C148.692 54.392 149.887 53.7733 151.209 53.56C151.636 53.56 152.319 53.6667 153.257 53.88C154.196 54.0933 155.071 54.4347 155.881 54.904C156.265 55.2027 156.521 55.5227 156.649 55.864C156.777 56.2053 156.863 56.5467 156.905 56.888C156.905 56.9733 156.905 57.1227 156.905 57.336C156.948 57.5493 156.969 57.8907 156.969 58.36C156.969 58.7867 156.969 59.4053 156.969 60.216C156.969 60.984 156.969 62.008 156.969 63.288C156.969 63.8427 156.969 64.376 156.969 64.888C156.969 65.4 156.969 65.9547 156.969 66.552C157.012 67.1493 157.076 67.8533 157.161 68.664C157.247 69.4747 157.353 70.4347 157.481 71.544C157.609 71.2027 157.737 70.8827 157.865 70.584C158.036 70.2853 158.185 69.9653 158.313 69.624C158.783 68.6427 159.231 67.6613 159.657 66.68C160.084 65.6987 160.511 64.696 160.937 63.672C161.919 61.368 162.836 59.2347 163.689 57.272C164.543 55.3093 165.375 53.624 166.185 52.216C166.996 50.808 167.785 49.72 168.553 48.952C169.321 48.1413 170.132 47.736 170.985 47.736C171.369 47.5653 171.945 47.48 172.713 47.48C173.481 47.48 174.207 47.736 174.889 48.248C175.572 48.76 176.127 49.6347 176.553 50.872C176.468 51.2133 176.361 51.5547 176.233 51.896C176.105 52.1947 175.892 52.6427 175.593 53.24C173.929 56.7387 172.521 59.7467 171.369 62.264C170.217 64.7387 169.257 66.872 168.489 68.664C167.721 70.456 167.081 71.9707 166.569 73.208C166.1 74.4453 165.673 75.576 165.289 76.6C164.948 77.4533 164.628 78.2853 164.329 79.096C164.031 79.9067 163.668 80.76 163.241 81.656V81.592C163.028 82.1893 162.836 82.6587 162.665 83C162.537 83.384 162.367 83.6827 162.153 83.896C161.983 84.152 161.748 84.344 161.449 84.472C161.193 84.6427 160.809 84.792 160.297 84.92C159.871 85.048 159.444 85.112 159.017 85.112C158.591 85.1547 158.015 85.176 157.289 85.176C156.863 85.176 156.372 85.1333 155.817 85.048C155.263 85.0053 154.644 84.856 153.961 84.6C153.321 84.3013 152.745 83.8107 152.233 83.128C151.764 82.4453 151.359 81.6987 151.017 80.888C150.676 80.0773 150.399 79.2667 150.185 78.456C149.972 77.6027 149.823 76.8347 149.737 76.152V76.28C149.567 75.8107 149.417 75.2347 149.289 74.552C149.161 73.8267 149.055 73.1013 148.969 72.376C148.927 72.248 148.905 72.1413 148.905 72.056C148.905 71.9707 148.884 71.864 148.841 71.736C148.756 71.096 148.692 70.6693 148.649 70.456C148.649 70.2 148.628 70.0293 148.585 69.944C148.543 69.7733 148.5 69.5387 148.457 69.24C148.415 68.8987 148.329 68.088 148.201 66.808L147.945 66.872C147.604 67.3413 147.22 68.024 146.793 68.92C146.409 69.816 145.812 71.2453 145.001 73.208C144.745 73.8907 144.489 74.5307 144.233 75.128C143.977 75.7253 143.743 76.3013 143.529 76.856C142.633 79.2453 141.823 81.1013 141.097 82.424C140.415 83.704 139.519 84.344 138.409 84.344C138.281 84.344 138.047 84.3013 137.705 84.216C137.236 84.3867 136.681 84.472 136.041 84.472C135.231 84.472 134.356 84.1733 133.417 83.576H133.481ZM180.083 84.408L176.371 83.192C176.157 83.1067 176.008 83 175.923 82.872C176.008 82.9573 176.093 83 176.179 83L175.859 82.808L175.795 82.744C175.368 82.3173 175.048 81.6773 174.835 80.824C175.773 75.3627 176.648 70.4987 177.459 66.232C178.269 61.9653 179.037 58.3813 179.763 55.48C180.488 52.536 181.192 50.296 181.875 48.76C182.6 47.224 183.347 46.456 184.115 46.456C184.499 46.456 184.819 46.5627 185.075 46.776H185.587C186.184 46.776 186.739 46.904 187.251 47.16C187.805 47.3733 188.296 47.672 188.723 48.056C189.149 48.44 189.469 48.888 189.683 49.4C189.939 49.912 190.067 50.4453 190.067 51C189.896 51.8533 189.704 52.7067 189.491 53.56C189.32 54.3707 189.149 55.0747 188.979 55.672V55.608C188.936 55.6933 188.851 55.928 188.723 56.312C188.637 56.6533 188.531 57.016 188.403 57.4C188.232 57.8693 188.061 58.36 187.891 58.872C187.72 59.3413 187.592 59.9387 187.507 60.664C187.037 62.584 186.525 64.7173 185.971 67.064C185.459 69.368 184.968 71.5653 184.499 73.656C184.029 75.704 183.624 77.432 183.283 78.84C182.984 80.248 182.835 80.9733 182.835 81.016C182.749 81.7413 182.643 82.232 182.515 82.488C182.387 82.744 182.152 83.1067 181.811 83.576C181.811 83.576 181.725 83.6827 181.555 83.896C181.427 84.1093 181.32 84.28 181.235 84.408H180.083ZM220.638 54.008L207.646 54.712C207.39 55.1813 207.177 55.5867 207.006 55.928C206.836 56.2693 206.665 56.7173 206.494 57.272C206.324 57.8267 206.132 58.5733 205.918 59.512C205.748 60.4507 205.47 61.752 205.086 63.416C204.702 65.2933 204.169 67.7253 203.486 70.712C202.846 73.656 202.014 77.3893 200.99 81.912V82.168C200.99 83.2347 200.585 83.96 199.774 84.344C199.006 84.728 198.196 84.92 197.342 84.92C196.745 84.92 196.233 84.856 195.806 84.728L194.91 84.28C194.74 84.1093 194.633 83.9813 194.59 83.896C194.036 83.2133 193.694 82.7227 193.566 82.424C193.481 82.1253 193.438 81.7627 193.438 81.336C193.481 81.2507 193.524 81.144 193.566 81.016C193.609 80.888 193.673 80.6107 193.758 80.184C193.886 79.7147 194.036 79.0533 194.206 78.2C194.377 77.304 194.612 76.088 194.91 74.552C195.252 73.016 195.657 71.0747 196.126 68.728C196.596 66.3813 197.172 63.5013 197.854 60.088C198.025 59.32 198.174 58.5307 198.302 57.72C198.43 56.8667 198.601 55.992 198.814 55.096L198.686 54.968H193.374C192.521 54.968 191.774 54.9253 191.134 54.84C190.537 54.7547 189.833 54.6053 189.022 54.392C188.724 53.9227 188.468 53.3467 188.254 52.664C188.041 51.9813 187.934 51.3413 187.934 50.744C187.934 50.0613 188.084 49.4853 188.382 49.016C188.638 48.504 189.108 48.184 189.79 48.056C190.345 48.056 190.857 48.056 191.326 48.056C191.796 48.0133 192.35 47.992 192.99 47.992C193.63 47.9493 194.42 47.928 195.358 47.928C196.34 47.8853 197.62 47.864 199.198 47.864H203.166C203.678 47.8213 204.382 47.7787 205.278 47.736C206.217 47.6933 207.241 47.672 208.35 47.672C209.502 47.6293 210.718 47.608 211.998 47.608C213.278 47.5653 214.537 47.544 215.774 47.544H217.438C217.524 47.544 217.609 47.5227 217.694 47.48H217.63C217.801 47.4373 217.972 47.416 218.142 47.416C218.313 47.416 218.505 47.416 218.718 47.416C220.041 47.416 221.065 47.8213 221.79 48.632C222.558 49.4 222.942 50.232 222.942 51.128C222.942 51.7253 222.75 52.3013 222.366 52.856C222.025 53.368 221.449 53.752 220.638 54.008ZM250.451 54.008L237.459 54.712C237.203 55.1813 236.989 55.5867 236.819 55.928C236.648 56.2693 236.477 56.7173 236.307 57.272C236.136 57.8267 235.944 58.5733 235.731 59.512C235.56 60.4507 235.283 61.752 234.899 63.416C234.515 65.2933 233.981 67.7253 233.299 70.712C232.659 73.656 231.827 77.3893 230.803 81.912V82.168C230.803 83.2347 230.397 83.96 229.587 84.344C228.819 84.728 228.008 84.92 227.155 84.92C226.557 84.92 226.045 84.856 225.619 84.728L224.723 84.28C224.552 84.1093 224.445 83.9813 224.403 83.896C223.848 83.2133 223.507 82.7227 223.379 82.424C223.293 82.1253 223.251 81.7627 223.251 81.336C223.293 81.2507 223.336 81.144 223.379 81.016C223.421 80.888 223.485 80.6107 223.571 80.184C223.699 79.7147 223.848 79.0533 224.019 78.2C224.189 77.304 224.424 76.088 224.723 74.552C225.064 73.016 225.469 71.0747 225.939 68.728C226.408 66.3813 226.984 63.5013 227.667 60.088C227.837 59.32 227.987 58.5307 228.115 57.72C228.243 56.8667 228.413 55.992 228.627 55.096L228.499 54.968H223.187C222.333 54.968 221.587 54.9253 220.947 54.84C220.349 54.7547 219.645 54.6053 218.835 54.392C218.536 53.9227 218.28 53.3467 218.067 52.664C217.853 51.9813 217.747 51.3413 217.747 50.744C217.747 50.0613 217.896 49.4853 218.195 49.016C218.451 48.504 218.92 48.184 219.603 48.056C220.157 48.056 220.669 48.056 221.139 48.056C221.608 48.0133 222.163 47.992 222.803 47.992C223.443 47.9493 224.232 47.928 225.171 47.928C226.152 47.8853 227.432 47.864 229.011 47.864H232.979C233.491 47.8213 234.195 47.7787 235.091 47.736C236.029 47.6933 237.053 47.672 238.163 47.672C239.315 47.6293 240.531 47.608 241.811 47.608C243.091 47.5653 244.349 47.544 245.587 47.544H247.251C247.336 47.544 247.421 47.5227 247.507 47.48H247.443C247.613 47.4373 247.784 47.416 247.955 47.416C248.125 47.416 248.317 47.416 248.531 47.416C249.853 47.416 250.877 47.8213 251.603 48.632C252.371 49.4 252.755 50.232 252.755 51.128C252.755 51.7253 252.563 52.3013 252.179 52.856C251.837 53.368 251.261 53.752 250.451 54.008ZM248.903 81.464L253.447 53.176C253.703 51.9813 253.938 51.0427 254.151 50.36C254.407 49.6347 254.706 49.08 255.047 48.696C255.431 48.312 255.922 48.0773 256.519 47.992C257.159 47.864 258.013 47.8 259.079 47.8C259.463 47.8427 259.805 47.864 260.103 47.864C260.445 47.864 260.765 47.864 261.063 47.864H265.031C266.013 47.864 267.271 47.9067 268.807 47.992C270.386 48.0347 271.943 48.0987 273.479 48.184C274.333 48.2267 275.143 48.2693 275.911 48.312C276.679 48.312 277.362 48.3333 277.959 48.376C278.727 48.4613 279.367 48.5467 279.879 48.632C280.391 48.7173 280.818 48.8453 281.159 49.016C281.543 49.144 281.863 49.336 282.119 49.592C282.375 49.848 282.61 50.1893 282.823 50.616V51.256C282.823 51.6827 282.653 52.1093 282.311 52.536C281.97 52.9627 281.33 53.304 280.391 53.56C280.349 53.56 280.306 53.5813 280.263 53.624C280.135 53.7093 279.858 53.752 279.431 53.752H277.511L264.071 54.264C263.943 54.264 263.794 54.2853 263.623 54.328C263.495 54.328 263.325 54.3493 263.111 54.392C262.941 54.9467 262.749 55.5867 262.535 56.312C262.365 57.0373 262.173 57.7627 261.959 58.488C261.789 59.1707 261.618 59.8107 261.447 60.408C261.277 61.0053 261.17 61.4533 261.127 61.752L261.255 61.944C262.066 62.0293 263.069 62.072 264.263 62.072C265.458 62.072 266.674 62.072 267.911 62.072H273.671C274.781 62.072 275.805 62.1787 276.743 62.392C277.682 62.5627 278.258 63.1173 278.471 64.056V65.144C278.471 65.7413 278.343 66.3173 278.087 66.872C277.831 67.4267 277.106 67.8107 275.911 68.024C275.826 68.024 275.655 68.0453 275.399 68.088C275.143 68.088 274.845 68.1093 274.503 68.152C274.119 68.1947 273.757 68.2373 273.415 68.28C273.074 68.28 272.797 68.28 272.583 68.28C271.175 68.408 269.959 68.5147 268.935 68.6C267.954 68.6853 267.079 68.7493 266.311 68.792C265.586 68.8347 264.946 68.8773 264.391 68.92C263.837 68.92 263.282 68.92 262.727 68.92L259.527 68.856L259.463 68.92C259.335 69.304 259.165 69.9013 258.951 70.712C258.781 71.48 258.589 72.312 258.375 73.208C258.205 74.104 258.034 74.9787 257.863 75.832C257.693 76.6853 257.586 77.3467 257.543 77.816L257.735 78.008C258.717 77.88 259.698 77.7947 260.679 77.752C261.661 77.6667 262.642 77.6027 263.623 77.56C263.879 77.56 264.135 77.56 264.391 77.56C264.69 77.5173 264.967 77.496 265.223 77.496C265.479 77.496 265.799 77.496 266.183 77.496C266.567 77.4533 267.101 77.4107 267.783 77.368C268.509 77.2827 269.405 77.2187 270.471 77.176C271.581 77.0907 272.946 76.984 274.567 76.856C274.653 76.856 274.738 76.8773 274.823 76.92C274.951 76.92 275.058 76.92 275.143 76.92C275.741 77.0053 276.338 77.112 276.935 77.24C277.575 77.3253 278.087 77.5173 278.471 77.816H279.047C279.133 78.2853 279.175 78.6267 279.175 78.84C279.175 79.0533 279.175 79.2453 279.175 79.416C279.175 79.8853 279.111 80.248 278.983 80.504C278.855 80.7173 278.663 80.9947 278.407 81.336C278.279 81.464 278.023 81.592 277.639 81.72C277.298 81.848 276.722 81.9547 275.911 82.04L260.103 84.28H259.911C259.741 84.28 259.613 84.3013 259.527 84.344C258.589 84.5147 257.757 84.6427 257.031 84.728C256.349 84.856 255.517 84.92 254.535 84.92C254.066 84.92 253.49 84.7067 252.807 84.28C252.167 83.8533 251.527 83.384 250.887 82.872C250.418 82.5307 250.034 82.2533 249.735 82.04C249.437 81.8267 249.159 81.6347 248.903 81.464ZM314.923 56.248L315.179 58.744C314.88 60.024 314.197 61.24 313.131 62.392C312.107 63.544 310.827 64.5893 309.291 65.528C307.797 66.4667 306.176 67.32 304.427 68.088C302.677 68.8133 300.949 69.3893 299.243 69.816L299.179 69.88H299.115C300.096 71.1173 301.333 72.2907 302.827 73.4C304.32 74.5093 305.749 75.5547 307.115 76.536C308.523 77.56 309.717 78.4987 310.699 79.352C311.723 80.1627 312.235 80.888 312.235 81.528C312.235 82.168 311.872 82.616 311.147 82.872C311.061 83.5973 310.763 84.088 310.251 84.344C309.739 84.6427 309.12 84.8987 308.395 85.112C306.176 84.1307 304.235 83.0427 302.571 81.848C300.949 80.6533 299.307 79.2453 297.643 77.624C297.472 77.496 297.323 77.3893 297.195 77.304C297.109 77.2187 296.96 77.0907 296.747 76.92C296.533 76.7067 296.235 76.4293 295.851 76.088C295.509 75.7467 294.997 75.2773 294.315 74.68C293.973 74.3813 293.653 74.104 293.355 73.848C293.056 73.592 292.736 73.3147 292.395 73.016C292.053 73.8693 291.669 74.8507 291.243 75.96C290.859 77.0267 290.496 78.0507 290.155 79.032C289.813 79.9707 289.493 80.8027 289.195 81.528C288.939 82.2533 288.747 82.744 288.619 83C288.619 83.8533 288.384 84.5573 287.915 85.112C287.445 85.6667 286.848 85.944 286.123 85.944H285.995C285.653 85.944 285.205 85.7947 284.651 85.496C284.096 85.1973 283.712 84.9627 283.499 84.792C282.261 83.896 281.621 83 281.579 82.104V81.656C281.579 81.4853 281.6 81.2933 281.643 81.08C281.643 80.824 281.707 80.3973 281.835 79.8C281.963 79.16 282.155 78.264 282.411 77.112C282.667 75.96 283.008 74.3813 283.435 72.376C283.861 70.3707 284.395 67.8747 285.035 64.888C285.717 61.8587 286.549 58.1893 287.531 53.88C287.573 53.7093 287.744 53.304 288.043 52.664C288.341 51.9813 288.747 51.2347 289.259 50.424C289.301 50.296 289.344 50.1893 289.387 50.104C289.472 50.0187 289.557 49.9333 289.643 49.848C289.771 49.6773 289.877 49.528 289.963 49.4C290.091 49.272 290.219 49.1227 290.347 48.952C291.029 48.6533 291.776 48.4827 292.587 48.44C293.44 48.3547 294.272 48.2693 295.083 48.184C295.296 48.184 295.488 48.184 295.659 48.184C295.872 48.1413 296.085 48.12 296.299 48.12C298.475 48.12 300.736 48.312 303.083 48.696C305.472 49.08 308.075 49.9333 310.891 51.256C312.128 52.152 313.067 52.9413 313.707 53.624C314.347 54.264 314.752 55.1387 314.923 56.248ZM294.891 63.736C295.915 63.6933 296.875 63.608 297.771 63.48C298.667 63.3093 299.563 63.0747 300.459 62.776C301.355 62.4347 302.315 61.9653 303.339 61.368C304.363 60.728 305.557 59.896 306.923 58.872C307.093 58.5733 307.221 58.3173 307.307 58.104C307.435 57.848 307.52 57.656 307.563 57.528C307.435 57.1867 307.2 56.8453 306.859 56.504C306.56 56.1627 306.261 55.864 305.963 55.608C305.877 55.5227 305.792 55.4587 305.707 55.416C305.664 55.3733 305.621 55.3307 305.579 55.288C304.981 54.904 304.277 54.6053 303.467 54.392C302.699 54.136 301.888 53.944 301.035 53.816C300.224 53.688 299.392 53.6027 298.539 53.56C297.728 53.4747 296.981 53.432 296.299 53.432C296.213 53.688 296.149 53.9013 296.107 54.072C295.893 54.6267 295.659 55.3307 295.403 56.184C295.147 56.9947 294.891 57.8693 294.635 58.808C294.379 59.704 294.165 60.5787 293.995 61.432C293.824 62.2853 293.739 63.032 293.739 63.672C293.739 64.184 293.76 64.44 293.803 64.44C293.931 64.44 294.293 64.2053 294.891 63.736Z" fill="white"/>
</svg>
